<?xml version="1.0" encoding="UTF-8" standalone="no"?>
<svg
   xmlns:dc="http://purl.org/dc/elements/1.1/"
   xmlns:cc="http://creativecommons.org/ns#"
   xmlns:rdf="http://www.w3.org/1999/02/22-rdf-syntax-ns#"
   xmlns:svg="http://www.w3.org/2000/svg"
   xmlns="http://www.w3.org/2000/svg"
   xmlns:sodipodi="http://sodipodi.sourceforge.net/DTD/sodipodi-0.dtd"
   xmlns:inkscape="http://www.inkscape.org/namespaces/inkscape"
   width="64"
   height="64"
   viewBox="0 0 16.933333 16.933334"
   version="1.1"
   id="svg8"
   inkscape:version="0.92.3 (2405546, 2018-03-11)"
   sodipodi:docname="04-Key person.svg">
  <defs
     id="defs2" />
  <sodipodi:namedview
     id="base"
     pagecolor="#ffffff"
     bordercolor="#959595"
     borderopacity="1"
     inkscape:pageopacity="0"
     inkscape:pageshadow="2"
     inkscape:zoom="5.6568543"
     inkscape:cx="-21.301161"
     inkscape:cy="31.14626"
     inkscape:document-units="px"
     inkscape:current-layer="layer1"
     inkscape:document-rotation="0"
     showgrid="false"
     units="px"
     inkscape:window-width="1920"
     inkscape:window-height="1040"
     inkscape:window-x="0"
     inkscape:window-y="0"
     inkscape:window-maximized="1"
     inkscape:pagecheckerboard="0"
     inkscape:snap-bbox="true"
     inkscape:bbox-nodes="true">
    <inkscape:grid
       type="xygrid"
       id="grid822" />
  </sodipodi:namedview>
  <metadata
     id="metadata5">
    <rdf:RDF>
      <cc:Work
         rdf:about="">
        <dc:format>image/svg+xml</dc:format>
        <dc:type
           rdf:resource="http://purl.org/dc/dcmitype/StillImage" />
      </cc:Work>
    </rdf:RDF>
  </metadata>
  <g
     inkscape:label="04-Key person"
     inkscape:groupmode="layer"
     id="layer1">
    <path
       style="color:#000000;font-style:normal;font-variant:normal;font-weight:normal;font-stretch:normal;font-size:medium;line-height:normal;font-family:sans-serif;font-variant-ligatures:normal;font-variant-position:normal;font-variant-caps:normal;font-variant-numeric:normal;font-variant-alternates:normal;font-feature-settings:normal;text-indent:0;text-align:start;text-decoration:none;text-decoration-line:none;text-decoration-style:solid;text-decoration-color:#000000;letter-spacing:normal;word-spacing:normal;text-transform:none;writing-mode:lr-tb;direction:ltr;text-orientation:mixed;dominant-baseline:auto;baseline-shift:baseline;text-anchor:start;white-space:normal;shape-padding:0;clip-rule:nonzero;display:inline;overflow:visible;visibility:visible;opacity:1;isolation:auto;mix-blend-mode:normal;color-interpolation:sRGB;color-interpolation-filters:linearRGB;solid-color:#000000;solid-opacity:1;vector-effect:none;fill:#000000;fill-opacity:1;fill-rule:nonzero;stroke:none;stroke-width:2.00000095;stroke-linecap:round;stroke-linejoin:round;stroke-miterlimit:4;stroke-dasharray:none;stroke-dashoffset:0;stroke-opacity:1;color-rendering:auto;image-rendering:auto;shape-rendering:auto;text-rendering:auto;enable-background:accumulate"
       d="m 46,2 c -0.499986,0 -1,0.3333878 -1,1 v 1 c 0,1.3335643 2,1.3335643 2,0 V 3 C 47,2.3332367 46.499994,2 46,2 Z m -5.152344,0.9550781 c -0.474005,0.050663 -0.901411,0.4348777 -0.90039,0.9980469 0.0026,0.2706066 0.114389,0.5283675 0.310546,0.7148438 l 0.996094,1.0039062 c 0.943741,0.9867281 2.403435,-0.4709746 1.417969,-1.4160156 L 41.667969,3.2578125 C 41.433638,3.0144185 41.132085,2.9248238 40.847656,2.9550781 Z m 10.207032,0.00195 c -0.253607,-0.011301 -0.520924,0.082086 -0.75586,0.328125 l -0.996094,0.99805 C 49.116782,4.463857 49.008315,4.7096713 49,4.96875 c -0.02646,0.9089476 1.075364,1.3789775 1.712891,0.7304688 l 1.003906,-1.0039063 c 0.734014,-0.7088281 0.09828,-1.701621 -0.662109,-1.7382813 z m -5.072266,5.0410157 c -0.14948,0.00357 -0.297049,0.04292 -0.429688,0.1113281 l -4,1.9921871 c -0.341291,0.170075 -0.556841,0.521191 -0.554687,0.902344 v 26.851563 c -0.183307,0.01512 -0.33788,0.01732 -0.412109,0.0098 -0.19087,-0.02268 -0.312201,-0.09157 -0.621094,-0.21289 -0.412082,-0.162134 -0.898408,-0.251599 -1.453125,-0.06641 -0.554722,0.185189 -1.020581,0.548413 -1.625,1.142578 -0.371528,0.365102 -0.651653,0.676495 -0.859375,0.992187 -0.629287,-0.35263 -1.33942,-0.689706 -2.011719,-1.013672 l -5.59375,-2.617187 c -0.134173,-0.06236 -0.276277,-0.09142 -0.417969,-0.0918 l 0.002,-1.5 C 29.31746,33.625117 30.385782,32.415917 31.085938,31 h 0.912109 C 34.19496,31 36,29.214821 36,26.998047 36,25.519504 35.18834,24.225781 34.001953,23.533203 V 22 c 0,-6.076533 -4.886359,-10.999811 -10.998047,-11 C 16.892184,10.999849 12,15.923467 12,22 v 1.533203 c -1.190847,0.691442 -2,1.982939 -2,3.464844 C 10,29.214821 11.804738,31 14.001953,31 h 0.914063 c 0.700229,1.413764 1.736981,2.603146 3.082031,3.5 v 1.501953 c -0.0378,0 -0.07272,-0.0038 -0.109375,0 -0.107339,0.01134 -0.212657,0.04178 -0.310547,0.08789 l -5.591797,2.617187 c -1.1481,0.555001 -2.2880165,1.063225 -3.2597655,1.826172 -1.0340349,0.811858 -1.7541029,1.850585 -1.9882813,3.306641 l -1.6875,11.572265 c -0.2505826,1.599825 0.4557182,3.030588 1.5429688,4.011719 1.0889507,0.982723 2.5754538,1.574446 4.134766,1.574219 11.179399,0 25.811917,0.0019 27.029296,0.002 0.548977,0.608145 1.355023,1 2.242188,1 0.77472,0 1.468769,-0.282346 1.998047,-0.761719 C 42.529524,61.717136 43.225688,62 44,62 44.775665,62 45.470496,61.716914 46,61.236328 46.531704,61.716355 47.228612,62 48.003906,62 48.778626,62 49.45317,61.717654 50.001953,61.238281 50.53343,61.717204 51.229598,62 52.003906,62 53.67078,62 55,60.640853 55,58.996094 v -0.992188 c 0,-0.199559 -0.01878,-0.383032 -0.05469,-0.572265 0.110366,-0.102048 0.211401,-0.200943 0.330079,-0.322266 0.607366,-0.617775 0.983864,-1.126804 1.15039,-1.660156 0.204095,-0.653235 0.019,-1.154894 -0.101562,-1.453125 -0.122457,-0.298205 -0.183408,-0.415949 -0.201172,-0.621094 -0.0189,-0.205228 0.0074,-0.542902 0.263672,-1.177734 0.25663,-0.634904 0.475366,-0.894077 0.630859,-1.029297 0.155339,-0.135307 0.273259,-0.173097 0.56836,-0.302735 0.295181,-0.129637 0.782676,-0.366647 1.091796,-0.982422 C 58.928317,49.384346 59.007559,48.75687 59,47.890625 58.9924,47.024422 58.894609,46.381235 58.640625,45.896484 58.363208,45.366723 57.928081,45.099596 57.541016,44.9375 c -0.297449,-0.124346 -0.394789,-0.142607 -0.576172,-0.294922 -0.157607,-0.132283 -0.388773,-0.389121 -0.65625,-1.019531 -0.267591,-0.63044 -0.290321,-1.045139 -0.28125,-1.173828 0.01512,-0.205607 0.07619,-0.318616 0.193359,-0.619141 0.116788,-0.300472 0.289967,-0.804384 0.07227,-1.460937 -0.188221,-0.567523 -0.561924,-1.03335 -1.179688,-1.640625 -0.604414,-0.594161 -1.070278,-0.957312 -1.625,-1.142578 -0.554713,-0.185193 -1.041047,-0.09574 -1.453125,0.06641 -0.308787,0.121693 -0.430338,0.189835 -0.621094,0.21289 -0.07446,0.0076 -0.229029,0.0091 -0.412109,-0.0098 V 29 c -2.64e-4,-0.266071 -0.106323,-0.521488 -0.294922,-0.708984 l -1.417969,-1.417969 1.542969,-2.316406 c 0.264567,-0.396839 0.212512,-0.926663 -0.125,-1.263672 l -1.417969,-1.423828 1.542969,-2.31836 c 0.266835,-0.400126 0.210747,-0.933315 -0.132812,-1.269531 l -1.292969,-1.253906 1.314453,-1.359375 c 0.179906,-0.186323 0.28125,-0.43447 0.28125,-0.69336 V 13.003906 C 51.001726,12.737835 50.89563,12.482457 50.707031,12.294922 L 46.705078,8.2929688 C 46.513834,8.1005981 46.253773,7.9944752 45.982422,7.9980469 Z M 19.53125,22.322266 c 1.061286,0.402205 2.116268,0.679687 3.472656,0.679687 1.094243,0 2.343161,-0.215096 3.464844,-0.677734 0.735416,1.32506 2.033394,2.25249 3.53125,2.572265 V 27.0625 c 0,3.855111 -3.134951,6.935547 -6.996094,6.935547 -3.899731,0 -7.005859,-3.127339 -7.005859,-6.935547 v -2.166016 c 1.47737,-0.300085 2.848244,-1.285666 3.533203,-2.574218 z m -5.529297,2.675781 0.0039,2.064453 c 0,0.66665 0.06757,1.312046 0.207032,1.9375 h -0.210938 c -1.11639,0 -2,-0.909024 -2,-2.001953 0,-1.092929 0.88361,-2 2,-2 z m 17.998047,0 c 1.115446,0.0011 2,0.907713 2,2 0,1.092929 -0.885563,2 -2.001953,2 H 31.787109 C 31.92544,28.373878 32,27.728167 32,27.0625 Z M 46,29 c 0.500107,1e-6 1,0.333199 1,1 v 8.998047 c 0,1.333636 -2,1.333636 -2,0 V 30 c 0,-0.66661 0.499863,-1 1,-1 z m -26,6.490234 c 0.941058,0.331835 1.94901,0.511719 3.003906,0.511719 1.054709,0 2.056659,-0.179557 2.996094,-0.509765 v 2.089843 l -2.412109,2.41211 H 22.414062 L 20,37.582031 Z m -2.207031,2.710938 2.792969,2.800781 -1.501954,1.501953 -2.851562,-3.572265 z m 10.421875,0 1.558594,0.730469 -2.857422,3.572265 -1.5,-1.503906 z m 3.421875,1.601562 1.523437,0.712891 c 1.071453,0.516193 1.948476,0.935353 2.666016,1.427734 0.07672,0.190489 0.134768,0.339021 0.146484,0.503907 0.0076,0.128504 -0.01517,0.543387 -0.28125,1.173828 -0.26759,0.630406 -0.498606,0.8871 -0.65625,1.019531 -0.181417,0.152315 -0.278915,0.170575 -0.576172,0.294922 -0.387058,0.162142 -0.82208,0.429223 -1.099609,0.958984 -0.253984,0.484747 -0.351816,1.127937 -0.359375,1.994141 -0.0076,0.866241 0.07168,1.493721 0.322266,1.992187 0.309165,0.615595 0.796693,0.852754 1.091796,0.982422 0.295185,0.129638 0.412872,0.167428 0.56836,0.302735 0.155338,0.135307 0.374157,0.394393 0.630859,1.029296 0.25663,0.634832 0.281436,0.972586 0.263672,1.177735 -0.0189,0.205228 -0.07909,0.322798 -0.201172,0.621094 -0.122456,0.298204 -0.305279,0.799894 -0.101562,1.453125 0.166677,0.533351 0.543062,1.042377 1.15039,1.660156 0.116788,0.119055 0.219653,0.223683 0.328125,0.324219 -0.03817,0.190866 -0.0516,0.368882 -0.05273,0.570312 l -0.0078,0.994141 -4.28125,0.002 c 0.201448,-0.631423 0.285156,-1.316168 0.285156,-2.003906 0,-0.323528 -0.01136,-1.522456 -0.521485,-2.615235 -0.742107,-1.4509 -1.893049,-1.384765 -2.046875,-1.384765 h -0.925781 c -0.0038,-1.110766 -0.227161,-2.084299 -0.644531,-2.761719 -0.371528,-0.602668 -1.061786,-1.197298 -1.986328,-1.234375 -0.292158,-0.01134 -0.737606,0.01516 -1.154297,0.234375 l -0.65625,-3.869141 0.955078,-0.939453 0.279297,0.28125 c 0.420811,0.417283 1.110216,0.379056 1.482422,-0.08203 z m -17.273438,0.002 3.857422,4.818359 c 0.372662,0.46687 1.068666,0.505247 1.490235,0.08203 l 0.298828,-0.300781 0.925781,0.925781 -1.285156,7.671875 h -3.246094 l 0.214844,-0.613281 c 0.437967,-1.259785 -1.452619,-1.916072 -1.890625,-0.65625 l -0.671875,1.943359 c -0.219591,0.647377 0.261564,1.320754 0.945312,1.322266 L 22,54.994141 v 4.001953 c -3.758189,-0.0014 -7.514278,0.002 -11.271484,0.002 -1.0381184,0 -2.0897662,-0.425772 -2.791016,-1.058594 C 7.2362132,57.306624 6.9027213,56.522255 7.0292969,55.71875 L 8.7128906,44.150391 c 0.1511811,-0.951693 0.6230309,-1.549592 1.2539063,-2.044922 0.6977721,-0.547824 1.7114411,-1.027465 2.8750001,-1.589844 z m 8.050781,2.189453 h 1.173829 l 1.015625,1.017578 -1.591797,1.566406 -1.589844,-1.589844 z m 26.587891,6.005859 c 0,1.668646 -1.356708,2.998047 -3.005859,2.998047 C 44.346942,50.998047 43,49.668646 43,48 c 0,-1.668646 1.350835,-3.001953 2.996094,-3.00193 1.645258,2.3e-5 3.005859,1.33333 3.005859,3.001976 z M 22.693359,46.93364 c 0.196158,0.06463 0.407914,0.06715 0.605469,0.0078 l 0.734375,4.332032 c -0.217323,0.435163 -0.452582,0.888466 -0.703125,1.207031 -0.30463,0.374929 -0.592804,0.517578 -0.974609,0.517578 h -0.671875 z m -8.691406,0.06445 c -1.334769,-0.0012 -1.334769,1.99887 0,2 h 4 c 1.334771,0.0012 1.334771,-1.998832 0,-2 z m 12.746094,4.003906 c 0.100063,2.8e-4 0.234322,3.07e-4 0.40625,0.279297 0.198425,0.322394 0.355971,0.873412 0.347656,1.796875 v 0.919922 c 0.002,0.552442 0.449503,0.998206 1.001953,0.996094 l 1.988282,0.0039 c 0.03931,0.04158 0.135597,0.156285 0.21875,0.34375 0.166299,0.374173 0.287109,1.015307 0.287109,1.654297 0,0.670238 -0.12081,1.28599 -0.287109,1.660156 -0.08315,0.187087 -0.175537,0.303624 -0.214844,0.341797 L 24,58.996094 v -4.458985 c 0.441484,-0.270992 0.644709,-0.510853 0.912109,-0.826171 0.39647,-0.541175 0.551473,-0.856179 0.802735,-1.330079 0.255118,-0.501225 0.475325,-0.929443 0.65625,-1.15039 0.181039,-0.221103 0.27689,-0.22878 0.376953,-0.228516 z M 45,58.001953 v 0.992188 c 0,0.571377 -0.452341,1.003906 -0.996094,1.003906 C 43.460146,59.998047 43,59.565518 43,58.994141 v -0.992188 c 0,-0.57137 0.460146,-1.003906 1.003906,-1.003884 C 44.547659,56.998047 45,57.430583 45,58.001953 Z m 3.998047,0.996147 c -0.0034,0.571034 -0.452466,1 -0.994141,1 C 47.460146,59.998047 47,59.565518 47,58.994141 v -0.992188 c 0,-0.57137 0.460146,-1.003906 1.003906,-1.003884 0.541675,2.1e-5 0.990739,0.430868 0.994141,1.001979 z M 53,58.001953 v 0.992188 c 0,0.571377 -0.452337,1.003906 -0.996094,1.003906 C 51.460149,59.998047 51,59.565518 51,58.994141 v -0.992188 c 0,-0.57137 0.460149,-1.003906 1.003906,-1.003884 C 52.547663,56.998047 53,57.430583 53,58.001953 Z m -12.001953,0.998088 c -0.0034,0.571873 -0.452429,1.001947 -0.994141,1.001947 C 39.460146,60.001953 39,59.569421 39,58.998047 v -0.992188 c 0,-0.57137 0.460146,-1.004196 1.003906,-1.005814 0.541712,-0.0017 0.990777,0.427977 0.994141,1.000023 z"
       transform="scale(0.26458334)"
       id="path862"
       inkscape:connector-curvature="0"
       sodipodi:nodetypes="ccccccccccccccccccccccccccccccccccccccccccccccccccccccccccccccccccccccccccccccccccccccccccccccccccccccccccccccccccccccccccccccccccccccccccccccccccccccccccccccccccccccccccccccccccccccccccccccccccccccccccccccccccccccccccccccccccccccccccccccccccccccccccccccccccccccccccccccc" />
  </g>
</svg>
