<?xml version="1.0" encoding="UTF-8" standalone="no"?>
<svg
   xmlns:dc="http://purl.org/dc/elements/1.1/"
   xmlns:cc="http://creativecommons.org/ns#"
   xmlns:rdf="http://www.w3.org/1999/02/22-rdf-syntax-ns#"
   xmlns:svg="http://www.w3.org/2000/svg"
   xmlns="http://www.w3.org/2000/svg"
   xmlns:sodipodi="http://sodipodi.sourceforge.net/DTD/sodipodi-0.dtd"
   xmlns:inkscape="http://www.inkscape.org/namespaces/inkscape"
   width="64"
   height="64"
   viewBox="0 0 16.933333 16.933334"
   version="1.1"
   id="svg8"
   inkscape:version="0.92.3 (2405546, 2018-03-11)"
   sodipodi:docname="12-Workgroup.svg"
   inkscape:export-filename="/home/wanzabuyumna/@WANZ_DESIGN/NICON STUDIO MAGANG/Style Line/Style Line/Icon 8/Icon 8.png"
   inkscape:export-xdpi="96"
   inkscape:export-ydpi="96">
  <defs
     id="defs2" />
  <sodipodi:namedview
     id="base"
     pagecolor="#ffffff"
     bordercolor="#959595"
     borderopacity="1"
     inkscape:pageopacity="0"
     inkscape:pageshadow="2"
     inkscape:zoom="8"
     inkscape:cx="19.753239"
     inkscape:cy="18.411769"
     inkscape:document-units="px"
     inkscape:current-layer="layer1"
     inkscape:document-rotation="0"
     showgrid="false"
     units="px"
     inkscape:window-width="1920"
     inkscape:window-height="1040"
     inkscape:window-x="0"
     inkscape:window-y="0"
     inkscape:window-maximized="1"
     inkscape:pagecheckerboard="0"
     inkscape:snap-global="false">
    <inkscape:grid
       type="xygrid"
       id="grid822" />
  </sodipodi:namedview>
  <metadata
     id="metadata5">
    <rdf:RDF>
      <cc:Work
         rdf:about="">
        <dc:format>image/svg+xml</dc:format>
        <dc:type
           rdf:resource="http://purl.org/dc/dcmitype/StillImage" />
      </cc:Work>
    </rdf:RDF>
  </metadata>
  <g
     inkscape:label="12-Workgroup"
     inkscape:groupmode="layer"
     id="layer1">
    <path
       style="color:#000000;font-style:normal;font-variant:normal;font-weight:normal;font-stretch:normal;font-size:medium;line-height:normal;font-family:sans-serif;font-variant-ligatures:normal;font-variant-position:normal;font-variant-caps:normal;font-variant-numeric:normal;font-variant-alternates:normal;font-feature-settings:normal;text-indent:0;text-align:start;text-decoration:none;text-decoration-line:none;text-decoration-style:solid;text-decoration-color:#000000;letter-spacing:normal;word-spacing:normal;text-transform:none;writing-mode:lr-tb;direction:ltr;text-orientation:mixed;dominant-baseline:auto;baseline-shift:baseline;text-anchor:start;white-space:normal;shape-padding:0;clip-rule:nonzero;display:inline;overflow:visible;visibility:visible;opacity:1;isolation:auto;mix-blend-mode:normal;color-interpolation:sRGB;color-interpolation-filters:linearRGB;solid-color:#000000;solid-opacity:1;vector-effect:none;fill:#000000;fill-opacity:1;fill-rule:nonzero;stroke:none;stroke-width:1.99999988;stroke-linecap:butt;stroke-linejoin:round;stroke-miterlimit:4;stroke-dasharray:none;stroke-dashoffset:0;stroke-opacity:1;color-rendering:auto;image-rendering:auto;shape-rendering:auto;text-rendering:auto;enable-background:accumulate"
       d="M 32,2 C 25.888277,2.000189 20.99617,6.9232752 20.996094,13 v 1.535156 c -0.446135,0.26041 -0.833477,0.599511 -1.150391,1.007813 -0.872277,-1.123615 -1.961692,-2.048916 -3.222656,-2.716797 0.868649,-1.040352 1.380859,-2.372326 1.380859,-3.8281251 0,-3.3018332 -2.672491,-6.0019531 -6.001953,-6.0019531 C 8.6725304,2.9960938 6,5.6962137 6,8.9980469 6,10.451993 6.5131299,11.784762 7.3789062,12.826172 4.1681598,14.529757 2,17.947025 2,21.873047 v 1.527344 c 0,3.101328 2.4663899,5.603515 5.5136719,5.603515 h 8.9687501 c 3.047244,0 5.513672,-2.482645 5.513672,-5.603515 v -1.527344 c 0.324661,0.08542 0.659365,0.128906 1.009765,0.128906 h 0.908203 c 0.700122,1.415962 1.762964,2.640662 3.083985,3.498047 v 1.503906 c -0.14589,-0.001 -0.290637,0.02629 -0.423828,0.08789 l -5.591797,2.617187 c -1.148258,0.554986 -2.280162,1.063199 -3.251953,1.826172 -1.052863,0.826658 -1.763854,1.851483 -1.994141,3.300782 l -0.18164,1.142578 c -0.34545,-0.01512 -0.715251,0.02661 -1.138672,0.15625 -1.003918,0.312567 -2.026051,1.044037 -3.447266,2.435546 -1.4211779,1.391472 -2.1781499,2.399483 -2.5097656,3.396485 -0.3594331,1.080189 -0.085196,1.909221 0.1699218,2.560547 0.2551183,0.651326 0.4919329,1.140427 0.5449219,1.896484 0.052913,0.756019 -0.082027,1.818434 -0.7890625,3.478516 -0.7034078,1.6512 -1.3608063,2.401451 -1.9335937,2.833984 C 5.8783845,53.168819 5.3270451,53.30485 4.6132812,53.628906 3.7517758,54.02005 3.066739,54.603882 2.6269531,55.740234 2.1872051,56.876587 2,58.534752 2,60.996094 1.9978835,61.548547 2.4436401,61.998072 2.9960938,62 H 61.003906 C 61.55636,61.998103 62.002117,61.548547 62,60.996094 c 0,-2.461342 -0.187092,-4.119507 -0.626953,-5.25586 -0.439748,-1.136352 -1.124823,-1.720184 -1.986328,-2.111328 -0.713726,-0.323905 -1.265141,-0.460087 -1.837891,-0.892578 -0.572787,-0.432529 -1.230224,-1.182784 -1.933594,-2.833984 -0.707149,-1.660082 -0.842013,-2.722497 -0.789062,-3.478516 0.05291,-0.756057 0.289917,-1.245158 0.544922,-1.896484 0.255118,-0.651326 0.52909,-1.480358 0.169922,-2.560547 -0.331465,-0.997002 -1.08855,-2.005013 -2.509766,-3.396485 -1.421216,-1.391509 -2.44331,-2.123131 -3.447266,-2.435546 -0.423382,-0.131906 -0.793222,-0.173636 -1.138672,-0.15625 l -0.18164,-1.142578 c -0.230173,-1.4493 -0.941278,-2.474124 -1.994141,-3.300782 -0.971754,-0.762973 -2.103732,-1.271186 -3.251953,-1.826172 l -5.591797,-2.617187 c -0.133039,-0.06123 -0.277825,-0.08865 -0.423828,-0.08789 V 25.5 c 1.320984,-0.857385 2.383826,-2.082085 3.083985,-3.498047 h 0.908203 c 0.350362,0 0.685028,-0.04349 1.009765,-0.128906 v 1.527344 c 0,3.12087 2.466428,5.603515 5.513672,5.603515 h 8.96875 C 59.533572,29.003906 62,26.501719 62,23.400391 V 21.873047 C 62,17.947025 59.831878,14.529757 56.621094,12.826172 57.486908,11.784761 58,10.451993 58,8.9980469 58,5.6962137 55.327508,2.9960938 51.998047,2.9960938 c -3.329424,0 -6.001953,2.7001199 -6.001953,6.0019531 0,1.4557991 0.51221,2.7877731 1.380859,3.8281251 -1.261001,0.667881 -2.350455,1.593182 -3.222656,2.716797 -0.317102,-0.408302 -0.704218,-0.747365 -1.150391,-1.007813 V 13 C 43.003868,6.9232721 38.111762,2.000189 32,2 Z M 12.001953,4.9960938 c 2.193336,0 4.001953,1.7809891 4.001953,4.0019531 C 16.003906,11.218973 14.195289,13 12.001953,13 9.8086561,13 8,11.218973 8,8.9980469 8,6.7770829 9.8086561,4.9960935 12.001953,4.9960938 Z m 39.996094,0 C 54.191382,4.9960938 56,6.7770829 56,8.9980469 56,11.218973 54.191382,13 51.998047,13 c -2.193298,0 -4.001953,-1.781027 -4.001953,-4.0019531 0,-2.220964 1.808655,-4.0019534 4.001953,-4.0019531 z M 28.535156,13.324219 c 1.121726,0.462652 2.370633,0.677734 3.464844,0.677734 1.094249,0 2.343156,-0.215046 3.464844,-0.677734 0.73542,1.325102 2.033422,2.252481 3.53125,2.572265 V 18.0625 C 38.996094,21.917769 35.861165,25 32,25 28.138872,25 25.003906,21.917769 25.003906,18.0625 v -2.166016 c 1.497866,-0.319748 2.795829,-1.247163 3.53125,-2.572265 z m -17.320312,1.61914 C 11.473363,14.977375 11.734324,15 12.001953,15 c 0.262299,0 0.519944,-0.02256 0.773438,-0.05469 l 1.130859,5.966797 -1.912109,1.736329 -1.91211,-1.736329 z m 41.570312,0 1.132813,5.96875 -1.91211,1.736329 -1.912109,-1.736329 1.130859,-5.966797 C 51.478216,14.97933 51.735596,15 51.998047,15 c 0.26759,0 0.528741,-0.02263 0.787109,-0.05664 z m -29.78125,1.054688 V 18.0625 c 0,0.665688 0.07456,1.311358 0.212891,1.935547 h -0.210938 c -1.11632,0 -2.001953,-0.907036 -2.001953,-2 0,-1.092321 0.88453,-1.998904 2,-2 z m 17.992188,0 c 1.115452,0.0011 2,0.907679 2,2 0,1.092964 -0.885557,2 -2.001953,2 h -0.210938 c 0.138331,-0.624189 0.212891,-1.269859 0.212891,-1.935547 z M 29,26.494141 c 0.911849,0.320504 1.887307,0.495655 3,0.505859 1.112731,-0.01134 2.088189,-0.185204 3,-0.505859 v 2.085937 l -1.476562,1.476563 C 33.066754,30.022625 32.57256,30 32,30 c -0.572523,0 -1.066793,0.02263 -1.523438,0.05664 L 29,28.580078 Z m -2.212891,2.708984 1.351563,1.353516 c -0.08126,0.0378 -0.159604,0.0748 -0.236328,0.115234 -0.754658,0.397379 -1.136616,0.925952 -1.388672,1.429687 l -1.884766,-1.888671 z m 10.425782,0 2.158203,1.009766 -1.884766,1.888671 c -0.252094,-0.503735 -0.634013,-1.032269 -1.388672,-1.429687 -0.07672,-0.04044 -0.155068,-0.07895 -0.236328,-0.115234 z m -14.511719,1.912109 2.902344,2.896485 c -0.06765,0.09638 -0.133333,0.191614 -0.21875,0.291015 -0.482911,0.561526 -1.316283,1.214317 -2.996094,1.890625 -1.679584,0.676196 -2.753345,0.788496 -3.513672,0.722657 -0.545235,-0.04724 -0.95991,-0.188604 -1.384766,-0.361328 l 0.22461,-1.402344 c 0.151181,-0.951723 0.611839,-1.545382 1.248047,-2.044922 0.696417,-0.546785 1.71433,-1.028608 2.871093,-1.585938 l 0.0078,-0.0078 c 0.0023,-0.0011 0.004,0.0011 0.0078,0 z m 18.597656,0 0.851563,0.398438 c 0.0023,0.0011 0.004,-0.0011 0.0078,0 l 0.0078,0.0078 c 1.157064,0.55733 2.174678,1.039154 2.871093,1.585938 0.636208,0.49954 1.096791,1.093236 1.248047,2.044922 l 0.22461,1.402344 c -0.424895,0.172724 -0.839531,0.314084 -1.384766,0.361328 -0.760328,0.06576 -1.834125,-0.0465 -3.513672,-0.722657 -1.679811,-0.676308 -2.513221,-1.3291 -2.996094,-1.890625 -0.08542,-0.0994 -0.151096,-0.194637 -0.21875,-0.291015 z M 32,32 c 1.819578,0 2.729355,0.204467 3.167969,0.435547 0.366236,0.211275 0.467128,0.383318 0.685547,0.923828 0.218456,0.54051 0.504813,1.388984 1.240234,2.244141 0.735497,0.855193 1.888221,1.685147 3.771484,2.443359 1.883452,0.758287 3.298513,0.961209 4.429688,0.863281 1.131137,-0.09789 1.940174,-0.493162 2.488281,-0.716797 0.548145,-0.223748 0.84198,-0.27184 1.210938,-0.154297 0.476333,0.14816 1.31537,0.671086 2.634765,1.962891 1.319433,1.291843 1.841238,2.067501 2.015625,2.591797 0.130772,0.393033 0.08187,0.653922 -0.132812,1.203125 -0.215055,0.549241 -0.600507,1.357976 -0.679688,2.488281 -0.07899,1.130306 0.151574,2.534904 0.945313,4.398438 0.797631,1.872415 1.640976,2.946213 2.568359,3.646484 0.891251,0.672983 1.727058,0.901604 2.214844,1.123047 0.331842,0.150803 0.671599,0.304229 0.945312,1.011719 0.33789,0.873524 0.414605,1.976554 0.484375,3.535156 H 44.960938 C 44.44983,53.29765 38.846238,47.996094 32,47.996094 25.153764,47.996094 19.55017,53.29765 19.039062,60 H 4.0097656 c 0.069921,-1.558602 0.1462585,-2.661632 0.484375,-3.535156 0.2736378,-0.707339 0.6135456,-0.861105 0.9453125,-1.011719 0.4877858,-0.22148 1.3235934,-0.450064 2.2148438,-1.123047 0.9273448,-0.700271 1.7707283,-1.774069 2.5683591,-3.646484 0.793814,-1.863534 1.024494,-3.268132 0.945313,-4.398438 -0.07899,-1.130305 -0.464746,-1.93904 -0.679688,-2.488281 -0.215055,-0.549203 -0.263584,-0.810092 -0.132812,-1.203125 0.174236,-0.524296 0.696229,-1.299954 2.015625,-2.591797 1.319395,-1.291805 2.158433,-1.814655 2.634765,-1.962891 0.368882,-0.117543 0.662793,-0.06907 1.210938,0.154297 0.548145,0.223748 1.357144,0.61887 2.488281,0.716797 1.131137,0.09789 2.546198,-0.10507 4.429688,-0.863281 1.883187,-0.758212 3.036026,-1.588166 3.771484,-2.443359 0.735459,-0.855157 1.021853,-1.703631 1.240234,-2.244141 0.218457,-0.54051 0.319387,-0.712439 0.685547,-0.923828 C 29.270645,32.204618 30.180422,32 32,32 Z m -4.388672,11.574219 c -0.09449,3.78e-4 -0.183093,0.01103 -0.269531,0.03711 -6.20999,1.663521 -11.06255,6.516459 -12.726563,12.726563 -0.45702,1.347326 1.648466,1.912639 1.927735,0.517578 1.479836,-5.523024 5.793345,-9.828682 11.316406,-11.308594 1.158085,-0.277417 0.94772,-1.983617 -0.248047,-1.972656 z m 8.775391,0 c -1.195654,-0.01134 -1.404179,1.694974 -0.246094,1.972656 5.523138,1.480252 9.836494,5.78557 11.316406,11.308594 0.279307,1.395061 2.384755,0.829748 1.927735,-0.517578 -1.663975,-6.210104 -6.516458,-11.062701 -12.726563,-12.726563 -0.08655,-0.02268 -0.176618,-0.03711 -0.271484,-0.03711 z"
       transform="scale(0.26458334)"
       id="path852"
       inkscape:connector-curvature="0"
       sodipodi:nodetypes="ccccccccccccccccccccccccccccccccccccccccccccccccccccccccccccccccccccccccccccccccccccccccccccccccccccccccccccccccccccccccccccccccccccccccccccccccccccccccccccccccccccccccccccccccccccccccccccccccccccccccccccccccc" />
  </g>
</svg>
